<svg xmlns="http://www.w3.org/2000/svg" version="1.1" xmlns:xlink="http://www.w3.org/1999/xlink" xmlns:svgjs="http://svgjs.com/svgjs" width="1920" height="1080" preserveAspectRatio="none" viewBox="0 0 1920 1080"><g mask="url(&quot;#SvgjsMask1049&quot;)" fill="none"><rect width="1920" height="1080" x="0" y="0" fill="rgba(40, 44, 52, 1)"></rect><path d="M0,674.05C123.97,671.728,205.761,549.474,308.803,480.507C409.522,413.095,542.645,380.876,598.626,273.383C655.249,164.657,615.76,35.166,604.294,-86.884C592.214,-215.46,617.463,-364.243,529.811,-459.084C442.285,-553.788,290.326,-531.518,165.059,-562.141C46.56,-591.109,-68.904,-667.646,-186.195,-634.12C-303.648,-600.548,-381.922,-490.678,-446.883,-387.226C-505.269,-294.245,-516.675,-185.145,-535.99,-77.064C-556.023,35.034,-602.938,150.392,-561.945,256.632C-520.262,364.659,-409.28,423.172,-316.328,492.217C-216.676,566.239,-124.114,676.375,0,674.05" fill="#252930"></path><path d="M1920 1724.984C2055.169 1737.341 2207.337 1777.9160000000002 2318.138 1699.5149999999999 2428.751 1621.2469999999998 2444.907 1465.342 2473.982 1332.995 2498.242 1222.565 2483.49 1113.125 2471.661 1000.683 2459.335 883.515 2470.367 758.0799999999999 2403.31 661.21 2333.436 560.271 2211.484 517.541 2100.658 464.73400000000004 1969.904 402.432 1837.566 285.164 1698.412 325.34000000000003 1559.311 365.501 1523.7350000000001 545.162 1432.557 657.6279999999999 1345.1770000000001 765.408 1186.692 834.5509999999999 1173.597 972.683 1160.475 1111.099 1297.431 1212.38 1368.645 1331.795 1431.075 1436.481 1466.809 1559.992 1566.047 1630.762 1667.507 1703.117 1795.9 1713.6390000000001 1920 1724.984" fill="#2b3038"></path></g><defs><mask id="SvgjsMask1049"><rect width="1920" height="1080" fill="#ffffff"></rect></mask></defs></svg>